<?xml version="1.0" standalone="no"?><!DOCTYPE svg PUBLIC "-//W3C//DTD SVG 1.1//EN" "http://www.w3.org/Graphics/SVG/1.1/DTD/svg11.dtd"><svg t="1534302685559" class="icon" style="" viewBox="0 0 1024 1024" version="1.1" xmlns="http://www.w3.org/2000/svg" p-id="2196" xmlns:xlink="http://www.w3.org/1999/xlink" width="200" height="200"><defs><style type="text/css"></style></defs><path d="M72.416 411.739V354.93c5.252-13.311 16.993-18.395 28.96-23.844a173416.084 173416.084 0 0 0 395.812-180.839c9.767-4.477 18.674-5.698 28.783-1.066 136.439 62.506 272.96 124.833 409.472 187.179 11.42 5.215 17.18 14.043 17.256 26.524 0.084 13.609 0.132 27.22-0.02 40.829-0.183 16.44-9.49 25.443-26.187 25.542-9.951 0.06-19.903 0.012-30.586 0.012v8.91c0.005 61.54 0.016 123.08 0.015 184.62-0.001 68.64 0.04 137.28-0.047 205.92-0.03 23.462-12.708 43.136-32.983 51.19-16.78 6.665-34.17 3.097-52.11 3.605V543.428H213.955v340.244c-13.14 0-25.273 0.54-37.337-0.141-13.874-0.783-25.52-6.858-34.627-17.544-9.975-11.705-12.679-25.483-12.663-40.472 0.143-128.7 0.081-257.401 0.08-386.101v-10.127c-9.018 0-17.006-0.607-24.87 0.13-14.954 1.403-25.893-3.642-32.12-17.678z m212.6 17.972v-0.036c20.69 0 41.38-0.112 62.069 0.064 6.734 0.058 9.717-2.644 9.613-9.472-0.2-13.002-0.138-26.01 0.01-39.014 0.073-6.48-3.007-8.862-9.262-8.845-41.38 0.111-82.759 0.122-124.138 0.015-6.348-0.016-9.207 2.516-9.12 8.943 0.17 12.707 0.32 25.425-0.03 38.125-0.214 7.749 3.011 10.436 10.564 10.322 20.094-0.302 40.196-0.102 60.294-0.102z m453.992-0.001c20.693 0 41.389-0.15 62.08 0.083 7.126 0.08 10.278-2.588 10.122-9.885-0.274-12.706-0.236-25.424-0.014-38.133 0.12-6.888-2.925-9.4-9.646-9.376-41.091 0.139-82.182 0.161-123.273-0.026-7.475-0.034-9.847 3.251-9.68 10.246 0.288 12.114 0.38 24.25-0.027 36.356-0.274 8.137 3.04 10.989 11.02 10.85 19.8-0.344 39.611-0.114 59.418-0.115z m-226.068-0.001c20.397 0 40.795-0.116 61.189 0.066 6.57 0.059 9.943-2.21 9.832-9.22-0.208-13.004-0.157-26.013-0.018-39.018 0.067-6.31-2.656-9.131-9.044-9.118-41.384 0.087-82.769 0.113-124.152-0.024-6.93-0.022-9.477 3.023-9.36 9.684 0.217 12.412 0.314 24.837-0.034 37.242-0.213 7.6 2.692 10.604 10.4 10.485 20.392-0.316 40.792-0.108 61.187-0.097z" fill="" p-id="2197"></path><path d="M249.193 602.406h526.808v54.734H249.193v-54.734zM249.193 689.217h526.808v54.734H249.193v-54.734zM249.193 776.03h526.808v54.733H249.193v-54.734z" fill="" p-id="2198"></path></svg>