<?xml version="1.0" standalone="no"?><!DOCTYPE svg PUBLIC "-//W3C//DTD SVG 1.1//EN" "http://www.w3.org/Graphics/SVG/1.1/DTD/svg11.dtd"><svg t="1529550225932" class="icon" style="" viewBox="0 0 1078 1024" version="1.1" xmlns="http://www.w3.org/2000/svg" p-id="2898" xmlns:xlink="http://www.w3.org/1999/xlink" width="210.546875" height="200"><defs><style type="text/css"></style></defs><path d="M1038.777937 435.469474l-130.425263-107.789474v-269.473684h-143.36V215.578947l-196.176842-161.68421A57.667368 57.667368 0 0 0 496.057937 53.894737L26.634779 431.157895a70.063158 70.063158 0 0 0 44.193684 125.035789h75.452632V970.105263c0 35.031579 23.174737 49.583158 58.206316 49.583158h652.126315c35.031579 0 65.212632-14.551579 65.212632-49.583158v-409.6h68.446316a70.602105 70.602105 0 0 0 47.427368-125.035789" fill="#EC1212" p-id="2899"></path><path d="M358.087411 558.888421a56.589474 56.589474 0 1 1 56.589473-56.589474 56.589474 56.589474 0 0 1-56.589473 56.589474m85.692631-56.589474a85.153684 85.153684 0 1 0-85.692631 85.153685 85.692632 85.692632 0 0 0 85.692631-85.153685M700.857937 558.888421a56.589474 56.589474 0 1 1 56.589474-56.589474A56.589474 56.589474 0 0 1 700.857937 558.888421m0-141.743158a85.153684 85.153684 0 1 0 85.153684 85.153684A85.692632 85.692632 0 0 0 700.857937 416.606316M631.872674 704.404211H431.384253a35.570526 35.570526 0 0 0-33.953685 46.888421 141.204211 141.204211 0 0 0 269.473685 0 35.570526 35.570526 0 0 0-33.953685-46.888421" fill="#FAFCFC" p-id="2900"></path></svg>
