<?xml version="1.0" standalone="no"?><!DOCTYPE svg PUBLIC "-//W3C//DTD SVG 1.1//EN" "http://www.w3.org/Graphics/SVG/1.1/DTD/svg11.dtd"><svg t="1529650754259" class="icon" style="" viewBox="0 0 1069 1024" version="1.1" xmlns="http://www.w3.org/2000/svg" p-id="1947" xmlns:xlink="http://www.w3.org/1999/xlink" width="208.7890625" height="200"><defs><style type="text/css"></style></defs><path d="M717.688 229.066q-9.88 0-16.616-6.737t-11.228-15.718-6.736-18.413-2.245-15.718V62h1.796q8.083 0 15.269 1.796t17.515 8.532 25.15 18.863 37.275 31.886q24.251 21.557 38.622 36.378t22.006 25.149 9.43 17.515 1.796 12.576v14.37H717.686zM997.03 652.12q2.694 7.186 3.592 17.965t-8.982 20.658q-4.492 4.492-8.083 8.533t-6.288 6.737q-3.592 3.593-6.287 5.389l-76.348-75.449q5.39-4.492 12.127-10.779t11.227-9.879q10.779-9.88 23.353-8.533t20.659 5.84q8.982 4.492 19.312 15.718t15.718 23.802z m-317.066 83.533q19.761 0 33.233-10.778L538.945 906.312H291.041q-17.064 0-37.274-9.88t-37.725-26.048-29.191-37.274-11.678-43.564V177.869q0-18.862 8.533-39.521t23.352-37.274 33.683-27.846T280.262 62h344.013v112.276q0 17.065 5.389 36.826t16.616 36.377 29.192 27.844 43.114 11.228h131.138v297.305L726.671 711.401q9.879-14.371 9.879-31.436 0-23.353-16.616-39.97t-39.97-16.616H343.137q-23.352 0-39.521 16.616t-16.167 39.97 16.167 39.521 39.521 16.167h336.827zM343.137 398.827q-23.352 0-39.521 16.616t-16.167 39.97 16.167 39.521 39.521 16.167h336.827q23.352 0 39.97-16.167t16.616-39.521-16.616-39.97-39.97-16.616H343.137z m338.624 450l34.132-34.132q13.474-13.474 29.641-30.089t32.335-32.785q38.622-38.623 87.126-86.227l75.449 75.45-149.102 149.102q-12.575 12.575-21.108 21.556t-9.43 9.88q-4.492 3.593-9.88 7.635t-10.778 6.736-16.616 6.737-22.904 7.635-22.456 6.287-16.166 3.593q-10.779 1.796-14.372-2.694t-1.796-15.269q0.898-5.39 3.592-16.167t6.288-22.006 6.737-21.108 4.94-13.474q5.39-11.677 14.372-20.658z" p-id="1948"></path></svg>
