<?xml version="1.0" standalone="no"?><!DOCTYPE svg PUBLIC "-//W3C//DTD SVG 1.1//EN" "http://www.w3.org/Graphics/SVG/1.1/DTD/svg11.dtd"><svg t="1534231526347" class="icon" style="" viewBox="0 0 1287 1024" version="1.1" xmlns="http://www.w3.org/2000/svg" p-id="975" xmlns:xlink="http://www.w3.org/1999/xlink" width="251.3671875" height="200"><defs><style type="text/css"></style></defs><path d="M810.797949 742.426256C750.355692 776.402051 634.144821 799.822769 498.871795 799.822769 363.598769 799.822769 247.282872 776.402051 186.998154 742.426256 109.883077 710.577231 52.381538 667.700513 23.158154 618.023385 9.531077 641.155282 0 665.284923 0 690.727385 0 831.225436 223.337026 945.230769 498.871795 945.230769 774.327795 945.230769 997.74359 831.225436 997.74359 690.727385 997.74359 665.206154 988.265026 641.155282 974.637949 618.023385 945.440821 667.700513 887.913026 710.577231 810.797949 742.426256L810.797949 742.426256ZM810.797949 524.314256C750.355692 558.263795 634.144821 581.684513 498.871795 581.684513 363.598769 581.684513 247.282872 558.342564 186.998154 524.314256 109.883077 492.465231 52.381538 449.562256 23.158154 399.832615 9.531077 423.017026 0 447.094154 0 472.536615 0 613.087179 223.337026 727.013744 498.871795 727.013744 774.327795 727.013744 997.74359 613.00841 997.74359 472.536615 997.74359 447.094154 988.265026 423.017026 974.637949 399.832615 945.440821 449.562256 887.913026 492.465231 810.797949 524.314256L810.797949 524.314256ZM146.090667 434.359795C236.386462 480.387282 361.10441 508.954256 498.871795 508.954256 636.639179 508.954256 761.357128 480.466051 851.574154 434.438564 896.840205 411.464205 933.23159 384.052513 958.490256 353.595077 983.775179 323.111385 997.74359 289.660718 997.74359 254.555897 997.74359 240.666256 994.540308 227.301744 989.84041 214.121026 951.558564 92.763897 747.309949 0 498.871795 0 250.51241 0 46.185026 92.763897 7.981949 213.989744 3.203282 227.144205 0 240.587487 0 254.477128 0 289.608205 13.96841 323.058872 39.200821 353.516308 64.433231 383.973744 100.982154 411.385436 146.090667 434.359795L146.090667 434.359795Z" p-id="976"></path></svg>